<svg width="44" height="44" viewBox="0 0 44 44" fill="none" xmlns="http://www.w3.org/2000/svg">
<path d="M22 0C34.1503 0 44 9.84974 44 22C44 34.1503 34.1503 44 22 44C9.84974 44 0 34.1503 0 22C0 9.84974 9.84974 0 22 0ZM17.4941 11C16.3015 11 15.5063 11.2653 14.8438 11.5303C14.1811 11.7953 13.5181 12.1928 12.8555 12.8555C12.1928 13.5181 11.9279 14.0486 11.5303 14.8438C11.2653 15.5063 11.1325 16.3015 11 17.4941V26.5059C11 27.6985 11.2652 28.4937 11.5303 29.1562C11.7953 29.8189 12.1928 30.4819 12.8555 31.1445C13.5181 31.8072 14.0486 32.0721 14.8438 32.4697C15.5063 32.7347 16.3015 32.8675 17.4941 33H26.5059C27.6985 33 28.4937 32.7348 29.1562 32.4697C29.8189 32.2047 30.4819 31.8072 31.1445 31.1445C31.8072 30.4819 32.0721 29.9514 32.4697 29.1562C32.7347 28.4937 32.8675 27.6985 33 26.5059V17.4941C33 16.3015 32.7348 15.5063 32.4697 14.8438C32.2047 14.1811 31.8072 13.5181 31.1445 12.8555C30.4819 12.1928 29.9514 11.9279 29.1562 11.5303C28.4937 11.2653 27.6985 11.1325 26.5059 11H17.4941ZM26.5059 12.9883C27.5661 12.9883 28.0965 13.2532 28.4941 13.3857C29.0241 13.6507 29.4218 13.7831 29.8193 14.1807C30.2169 14.5782 30.4817 14.9758 30.6143 15.5059C30.7468 15.9034 30.8792 16.4339 31.0117 17.4941V26.5059C31.0117 27.5661 30.7468 28.0965 30.6143 28.4941C30.3493 29.0242 30.2169 29.4218 29.8193 29.8193C29.4218 30.2169 29.0242 30.4817 28.4941 30.6143C28.0965 30.7468 27.5661 30.8792 26.5059 31.0117H17.4941C16.4339 31.0117 15.9034 30.7468 15.5059 30.6143C14.9758 30.3493 14.5782 30.2169 14.1807 29.8193C13.7831 29.4218 13.5183 29.0242 13.3857 28.4941C13.2532 28.0965 13.1208 27.5661 12.9883 26.5059V17.4941C12.9883 16.4339 13.2532 15.9034 13.3857 15.5059C13.6507 14.9758 13.7831 14.5782 14.1807 14.1807C14.5782 13.7831 14.9758 13.5183 15.5059 13.3857C15.9034 13.2532 16.4339 13.1208 17.4941 12.9883H26.5059ZM22 16.3008C18.8193 16.3008 16.3008 18.8193 16.3008 22C16.3008 25.1807 18.8193 27.6992 22 27.6992C25.1807 27.6992 27.6992 25.1807 27.6992 22C27.6992 18.8193 25.1807 16.3008 22 16.3008ZM22 18.2891C23.9879 18.2891 25.7109 19.8795 25.7109 22C25.7109 23.9879 23.9879 25.7109 22 25.7109C20.012 25.7109 18.2891 24.1205 18.2891 22C18.2891 20.012 19.8795 18.2891 22 18.2891ZM27.8311 14.8438C27.0992 14.8439 26.5059 15.4371 26.5059 16.1689C26.506 16.9007 27.0993 17.494 27.8311 17.4941C28.5629 17.4941 29.1561 16.9008 29.1562 16.1689C29.1562 15.437 28.563 14.8438 27.8311 14.8438Z" fill="#54595F"/>
</svg>
