<svg width="44" height="44" viewBox="0 0 44 44" fill="none" xmlns="http://www.w3.org/2000/svg">
<path d="M22 0C34.1503 0 44 9.84974 44 22C44 34.1503 34.1503 44 22 44C9.84974 44 0 34.1503 0 22C0 9.84974 9.84974 0 22 0ZM30.7998 13.8623C30.7997 12.7138 29.2744 13.4082 29.2744 13.4082L10.7129 20.9482C10.7047 20.9511 9.83479 21.2618 9.9043 21.834C9.97324 22.4079 10.6895 22.6719 10.6895 22.6719L15.2422 24.2578L27.0439 16.4971C27.6715 16.1026 28.0072 16.4134 27.4668 16.9355C27.1176 17.2727 19.1281 24.7117 18.0977 25.6699L18.1328 25.6875L25.7607 31.7441C27.0314 32.318 27.4941 31.1211 27.4941 31.1211L30.7998 13.8623Z" fill="#54595F"/>
</svg>
