<svg width="44" height="44" viewBox="0 0 44 44" fill="none" xmlns="http://www.w3.org/2000/svg">
<path d="M22 0C34.1503 0 44 9.84974 44 22C44 34.1503 34.1503 44 22 44C9.84974 44 0 34.1503 0 22C0 9.84974 9.84974 0 22 0ZM9.90039 14.2998C10.0969 23.919 14.8128 29.7002 23.0811 29.7002H23.5498V24.1963C25.0081 24.3837 26.3801 25.0065 27.4932 25.9854C28.6062 26.9643 29.4115 28.2567 29.8076 29.7002H34.0996C33.6583 28.0381 32.8765 26.4904 31.8057 25.1592C30.7348 23.8279 29.3997 22.7428 27.8877 21.9766C29.2421 21.1381 30.4124 20.0238 31.3252 18.7031C32.2381 17.3822 32.8744 15.8828 33.1934 14.2998H29.293C28.4466 17.3519 25.9379 20.1263 23.5498 20.3887V14.2998H19.6494V24.9678C17.2309 24.3511 14.178 21.36 14.042 14.2998H9.90039Z" fill="#54595F"/>
</svg>
