<svg width="16" height="16" viewBox="0 0 16 16" xmlns="http://www.w3.org/2000/svg">
<path d="M11.6464 3.64651C11.8417 3.45125 12.1582 3.45125 12.3535 3.64651C12.5487 3.84177 12.5487 4.15828 12.3535 4.35354L4.35348 12.3535C4.15822 12.5488 3.84171 12.5488 3.64645 12.3535C3.45118 12.1583 3.45118 11.8418 3.64645 11.6465L11.6464 3.64651Z" />
<path d="M3.64645 3.64651C3.84171 3.45125 4.15822 3.45125 4.35348 3.64651L12.3535 11.6465C12.5487 11.8418 12.5487 12.1583 12.3535 12.3535C12.1582 12.5488 11.8417 12.5488 11.6464 12.3535L3.64645 4.35354C3.45118 4.15828 3.45118 3.84177 3.64645 3.64651Z" />
</svg>
