<svg width="104" height="40" viewBox="0 0 104 40" xmlns="http://www.w3.org/2000/svg">
<path d="M9.92529 30.1638C9.66129 30.0318 9.38529 29.9358 9.12129 29.8638C8.85729 29.8038 8.56929 29.7678 8.26928 29.7678C7.51329 29.7678 6.92529 29.9598 6.50528 30.3438C6.08529 30.7278 5.88128 31.2918 5.88128 32.0118C5.88128 32.3478 5.92929 32.6478 6.04928 32.9118C6.16928 33.1878 6.32528 33.4158 6.52929 33.6078C6.73329 33.7998 6.97329 33.9558 7.23729 34.0518C7.50129 34.1598 7.77729 34.2078 8.08929 34.2078C8.83329 34.2078 9.50529 34.0398 10.1293 33.7038L10.4653 34.5798C10.0813 34.7958 9.69729 34.9398 9.31329 35.0118C8.92929 35.0838 8.49729 35.1198 8.02929 35.1198C7.52529 35.1198 7.06929 35.0478 6.66129 34.8918C6.25328 34.7358 5.91729 34.5198 5.62928 34.2438C5.34128 33.9678 5.12528 33.6438 4.98128 33.2598C4.82528 32.8878 4.75328 32.4798 4.75328 32.0358C4.75328 31.5678 4.83728 31.1358 5.01728 30.7518C5.19728 30.3678 5.44928 30.0318 5.76128 29.7558C6.07328 29.4798 6.43328 29.2638 6.85328 29.1078C7.26129 28.9638 7.71728 28.8798 8.19729 28.8798C8.67729 28.8798 9.08529 28.9158 9.42129 28.9878C9.75729 29.0598 10.0813 29.1798 10.3933 29.3358L9.92529 30.1638ZM11.2675 29.8758V28.9998H16.6555V29.8758H14.5195V34.9998H13.4035V29.8758H11.2675ZM24.0182 28.9998L21.3302 35.9838C21.1382 36.4638 20.8862 36.8238 20.5502 37.0638C20.2142 37.3038 19.8302 37.4238 19.3982 37.4238C19.2782 37.4238 19.1702 37.4238 19.0742 37.4118C18.9782 37.4118 18.8702 37.3878 18.7742 37.3518L18.8942 36.4518C19.0982 36.4518 19.2782 36.4518 19.4462 36.4278C19.6022 36.4038 19.7462 36.3678 19.8662 36.3078C19.9862 36.2478 20.0942 36.1638 20.1902 36.0438C20.2742 35.9358 20.3582 35.7918 20.4302 35.5998L20.6462 34.9998H19.7822L17.3102 28.9998H18.5702L20.4662 34.0758H20.9822L22.8062 28.9998H24.0182ZM30.1361 28.9998V34.1118H30.8921L30.7601 36.4638H29.9201L29.7881 34.9998H25.0241L24.8201 36.4638H23.9441V34.1598C24.2441 34.0038 24.4961 33.8118 24.7001 33.5718C24.9041 33.3318 25.0721 33.0678 25.1921 32.7558C25.3121 32.4558 25.3961 32.1198 25.4441 31.7598C25.4921 31.3998 25.5281 31.0038 25.5281 30.5838V28.9998H30.1361ZM26.5601 30.9918C26.5601 31.6638 26.4641 32.2638 26.2961 32.7678C26.1281 33.2838 25.8401 33.7278 25.4321 34.1118H29.0201V29.8998H26.5601V30.9918ZM33.1101 28.9998V32.0478L33.0741 33.5838L36.6501 28.9998H37.7061V34.9998H36.6141V32.6358L36.6381 30.4878L33.0981 34.9998H32.0181V28.9998H33.1101ZM43.4723 34.9998V32.9718C43.2323 33.0678 42.9443 33.1398 42.6203 33.1758C42.2843 33.2238 41.9363 33.2358 41.5523 33.2358L40.4003 34.9998H39.1523L40.5083 33.0078C40.1003 32.8638 39.7763 32.6358 39.5243 32.3238C39.2603 32.0238 39.1403 31.6278 39.1403 31.1478C39.1403 30.7878 39.2123 30.4638 39.3563 30.1878C39.5003 29.9238 39.6923 29.6958 39.9443 29.5158C40.1843 29.3478 40.4723 29.2158 40.8083 29.1318C41.1323 29.0478 41.4803 28.9998 41.8523 28.9998H44.5883V34.9998H43.4723ZM41.9363 29.8758C41.4083 29.8758 40.9883 29.9838 40.7003 30.1998C40.4003 30.4158 40.2563 30.7278 40.2563 31.1598C40.2563 31.5558 40.3763 31.8558 40.6403 32.0598C40.9043 32.2638 41.2403 32.3598 41.6723 32.3598C42.2003 32.3478 42.5363 32.3358 42.6803 32.3118C42.8123 32.2878 42.9443 32.2638 43.0763 32.2398C43.1963 32.2158 43.3283 32.1918 43.4723 32.1438V29.8758H41.9363ZM49.0956 29.8758V28.9998H54.4836V29.8758H52.3476V34.9998H51.2316V29.8758H49.0956ZM55.6119 29.4078C56.0559 29.2278 56.4639 29.0958 56.8479 29.0118C57.2319 28.9278 57.6639 28.8798 58.1679 28.8798C59.0559 28.8798 59.7039 29.0478 60.1239 29.3718C60.5439 29.7078 60.7599 30.2358 60.7599 30.9678V33.4758C60.7599 33.7638 60.8079 33.9678 60.9039 34.0638C60.9999 34.1598 61.1919 34.2078 61.5039 34.2078V34.9998C61.3599 35.0478 61.2399 35.0718 61.1199 35.0958C60.9999 35.1198 60.8679 35.1198 60.7119 35.1198C60.4599 35.1198 60.2679 35.0358 60.1239 34.8558C59.9799 34.6878 59.8959 34.4478 59.8719 34.1358C59.3199 34.7958 58.4919 35.1198 57.3999 35.1198C56.6919 35.1198 56.1519 34.9638 55.7919 34.6278C55.4319 34.3038 55.2519 33.8598 55.2519 33.2838C55.2519 33.0198 55.2879 32.7678 55.3719 32.5398C55.4559 32.3238 55.5999 32.0958 55.8159 31.8558C56.0799 31.7838 56.3559 31.7118 56.6319 31.6398C56.9079 31.5798 57.2079 31.5318 57.5199 31.4838C57.8319 31.4478 58.1559 31.4118 58.5159 31.3878C58.8639 31.3638 59.2479 31.3518 59.6799 31.3398V31.0038C59.6799 30.5958 59.5599 30.2838 59.3319 30.0918C59.1039 29.8998 58.6959 29.8038 58.1199 29.8038C57.3639 29.8038 56.6079 29.9718 55.8519 30.2958L55.6119 29.4078ZM59.6799 32.1438C58.9839 32.1678 58.3959 32.2038 57.9159 32.2638C57.4359 32.3238 57.0039 32.4078 56.6199 32.5038C56.4519 32.6958 56.3799 32.9358 56.3799 33.2238C56.3799 33.5598 56.4759 33.7998 56.6799 33.9678C56.8839 34.1358 57.1719 34.2078 57.5559 34.2078C57.9519 34.2078 58.3239 34.1478 58.6599 34.0278C58.9959 33.9078 59.3439 33.7038 59.6799 33.4158V32.1438ZM63.6495 28.9998V31.4358H66.9855V28.9998H68.0895V34.9998H66.9855V32.3238H63.6495V34.9998H62.5455V28.9998H63.6495ZM70.763 28.9998V34.1118H73.919V28.9998H75.035V34.1118H75.803L75.719 36.4638H74.879L74.747 34.9998H69.647V28.9998H70.763ZM77.6709 32.2758C77.6949 32.6118 77.7669 32.8998 77.8989 33.1398C78.0189 33.3798 78.1869 33.5838 78.4029 33.7398C78.6069 33.8958 78.8469 34.0158 79.1109 34.0878C79.3749 34.1598 79.6629 34.1958 79.9509 34.1958C80.3709 34.1958 80.7429 34.1718 81.0669 34.0998C81.3909 34.0278 81.7149 33.9078 82.0269 33.7278L82.3509 34.6398C82.1469 34.7358 81.9549 34.8198 81.7749 34.8798C81.5949 34.9398 81.4149 34.9878 81.2229 35.0238C81.0309 35.0598 80.8149 35.0838 80.5989 35.0958C80.3829 35.1198 80.1429 35.1198 79.8789 35.1198C79.3269 35.1198 78.8469 35.0478 78.4389 34.9038C78.0189 34.7598 77.6709 34.5558 77.3829 34.2798C77.0949 34.0158 76.8789 33.6798 76.7349 33.2958C76.5909 32.9118 76.5189 32.4918 76.5189 32.0118C76.5189 31.5558 76.5909 31.1238 76.7589 30.7398C76.9269 30.3558 77.1549 30.0198 77.4549 29.7438C77.7429 29.4798 78.0909 29.2638 78.4869 29.1078C78.8829 28.9638 79.3149 28.8798 79.7949 28.8798C80.2749 28.8798 80.6829 28.9518 81.0429 29.0718C81.3909 29.1918 81.6789 29.3718 81.9189 29.5878C82.1469 29.8038 82.3149 30.0678 82.4349 30.3678C82.5429 30.6798 82.6029 31.0038 82.6029 31.3638C82.6029 31.5318 82.5909 31.6878 82.5789 31.8318C82.5549 31.9758 82.5309 32.1198 82.4949 32.2758H77.6709ZM81.5229 31.4118C81.5109 30.8238 81.3669 30.4038 81.0789 30.1518C80.7909 29.9118 80.3229 29.7798 79.6749 29.7798C79.4349 29.7798 79.1949 29.8158 78.9549 29.8878C78.7149 29.9598 78.5109 30.0558 78.3309 30.1878C78.1389 30.3318 77.9829 30.4998 77.8629 30.7038C77.7429 30.9078 77.6709 31.1478 77.6469 31.4118H81.5229ZM86.7659 28.9998C87.0419 28.9998 87.3059 29.0358 87.5579 29.0958C87.8099 29.1678 88.0379 29.2638 88.2299 29.3958C88.4219 29.5278 88.5659 29.6958 88.6859 29.8878C88.7939 30.0918 88.8539 30.3318 88.8539 30.6078C88.8539 30.8718 88.7819 31.0998 88.6619 31.2678C88.5419 31.4478 88.3739 31.5918 88.1699 31.6998V31.7598C88.4819 31.8558 88.7339 32.0238 88.9259 32.2758C89.1179 32.5278 89.2259 32.8278 89.2259 33.1878C89.2259 33.4758 89.1659 33.7398 89.0579 33.9558C88.9499 34.1838 88.7939 34.3758 88.6019 34.5318C88.4099 34.6878 88.1819 34.8078 87.9179 34.8798C87.6539 34.9638 87.3659 34.9998 87.0539 34.9998H83.8619V28.9998H86.7659ZM84.9779 34.1598H86.9339C87.3179 34.1598 87.6059 34.0878 87.8099 33.9318C88.0139 33.7878 88.1219 33.5478 88.1219 33.2118C88.1219 32.8998 88.0259 32.6718 87.8339 32.5278C87.6419 32.3958 87.3419 32.3238 86.9459 32.3238H84.9779V34.1598ZM84.9779 31.4718H86.8859C87.1379 31.4718 87.3419 31.4118 87.5099 31.2678C87.6779 31.1358 87.7619 30.9318 87.7619 30.6678C87.7619 30.4158 87.6779 30.2118 87.5099 30.0678C87.3419 29.9238 87.1259 29.8518 86.8379 29.8518H84.9779V31.4718Z" />
<path fill-rule="evenodd" clip-rule="evenodd" d="M44.3252 4.34571C45.3098 4.36104 46.28 4.46884 47.2344 4.66797C48.1946 4.85332 49.0597 5.16242 49.8281 5.59864C50.6058 6.02509 51.2388 6.58855 51.7187 7.28907C52.2112 8.00784 52.4482 8.8874 52.4482 9.90918C52.4482 10.288 52.3815 10.6846 52.2539 11.0977C52.129 11.5017 51.9647 11.9045 51.7637 12.3057C51.5765 12.7092 51.3576 13.0974 51.1084 13.4697L51.1094 13.4707C50.8781 13.8236 50.6425 14.127 50.4043 14.3809L50.4053 14.3818C50.2958 14.5063 50.1187 14.6975 49.8769 14.9531L49.8711 14.96L49.8457 14.9854L49.8437 14.9863L49.8184 15.0117L49.8174 15.0137L49.8086 15.0225L49.8066 15.0234L49.792 15.0381L49.791 15.04L49.7852 15.0459L49.7832 15.0469L49.7715 15.0586L49.7676 15.0635L49.7656 15.0645L49.7568 15.0732L49.7559 15.0752L49.751 15.0791L49.7373 15.0928L49.7353 15.0938L49.7285 15.1016L49.7275 15.1035L49.7256 15.1045L49.6953 15.1348L49.6943 15.1367L49.6924 15.1377L49.6904 15.1397L49.6846 15.1445L49.6836 15.1465C49.6618 15.1681 49.68 15.1492 49.6582 15.1709C49.6529 15.1762 49.6519 15.1782 49.6465 15.1836C49.63 15.2 49.6499 15.1793 49.6338 15.1953C49.6118 15.2172 49.631 15.1992 49.6094 15.2207C49.5871 15.2429 49.6055 15.2228 49.583 15.2451L49.5811 15.249L49.5771 15.252L49.5752 15.2529L49.5742 15.2559L49.5732 15.2568L49.5703 15.2578C49.568 15.2601 49.5674 15.2616 49.5674 15.2617L49.5664 15.2637L49.5625 15.2656L49.5615 15.2686C49.5644 15.2657 49.5553 15.2728 49.5576 15.2705L49.5322 15.2959L49.5312 15.2988L49.5273 15.3008L49.5195 15.3086L49.5186 15.3115L49.5166 15.3125C49.5138 15.3153 49.5134 15.3167 49.5137 15.3164L49.5117 15.3174L49.5 15.3291L49.498 15.3301L49.4971 15.332C49.4885 15.3405 49.5018 15.3263 49.4932 15.335C49.4875 15.3406 49.4862 15.3429 49.4805 15.3486C49.4343 15.3946 49.4215 15.4068 49.374 15.4541L49.292 15.5361L49.2773 15.5498C49.2717 15.5554 49.2771 15.5511 49.2715 15.5566L49.2568 15.5713L49.2549 15.5723L49.2363 15.5918L49.2344 15.5938L49.2324 15.5947L49.2256 15.6016L49.2236 15.6045L49.2217 15.6055L49.1807 15.6465L49.1797 15.6484L49.1768 15.6504L49.1758 15.6523L49.165 15.6621L49.0332 15.794V15.793C48.7308 16.1088 48.4064 16.44 48.0596 16.7852L48.0547 16.79C47.7089 17.1192 47.3779 17.441 47.0625 17.7549C46.7614 18.0545 46.481 18.3242 46.2236 18.5654L46.2246 18.5664L46.0947 18.6953C46.0908 18.6992 46.0942 18.6959 46.0898 18.7002L46.083 18.7061L46.082 18.708L46.0801 18.71L46.0781 18.7109L46.0771 18.7129L46.0742 18.7148C46.0695 18.7195 46.059 18.7311 46.0547 18.7354C46.0528 18.7372 46.0539 18.7352 46.0518 18.7373C46.0508 18.7383 46.0508 18.7392 46.0498 18.7402L46.0488 18.7412L46.0469 18.7422L46.0459 18.7432L46.0449 18.7451C46.0428 18.7473 46.0375 18.7516 46.0352 18.7539L46.0332 18.7559V18.7568L46.0303 18.7588C46.0288 18.7603 46.0295 18.7605 46.0283 18.7617L46.0264 18.7627L46.0254 18.7637L46.0244 18.7656L46.0234 18.7666L46.0205 18.7686L46.0195 18.7705L46.0176 18.7715C46.0166 18.7726 46.0171 18.773 46.0156 18.7744H46.0146L46.0127 18.7764V18.7773L46.0107 18.7783L46.0098 18.7793L46.0088 18.7813H46.0078L46.0039 18.7852C46.0029 18.7862 46.0029 18.7871 46.0019 18.7881C46.001 18.789 45.9983 18.7908 45.9971 18.792C45.9887 18.8003 45.9956 18.7935 45.9873 18.8018L45.9785 18.8115C45.9744 18.8156 45.964 18.8251 45.96 18.8291C45.9558 18.8332 45.9463 18.8438 45.9424 18.8477L45.8125 18.9766C45.7931 18.9958 45.8159 18.9722 45.7969 18.9912C45.7909 18.9971 45.7963 18.9928 45.79 18.999L45.7861 19.002L45.7842 19.0039L45.7832 19.0059L45.7793 19.0088L45.7764 19.0117V19.0127C45.7703 19.0187 45.7745 19.0136 45.7686 19.0195L45.7559 19.0322V19.0332C45.7538 19.0353 45.7514 19.0367 45.75 19.0381C45.7051 19.3703 45.6468 19.6797 45.5752 19.9648C45.4923 20.2944 45.3621 20.5767 45.1689 20.7881C44.9578 21.0189 44.68 21.1215 44.3662 21.1065H44.3486C44.0873 21.1015 43.8056 20.9878 43.5146 20.8086C43.2486 21.0085 42.9606 21.2704 42.6533 21.6006C42.2885 22.0237 41.9081 22.4242 41.5127 22.8027C41.1032 23.2102 40.6739 23.5377 40.2227 23.7783C39.726 24.0431 39.2099 24.073 38.7021 23.8565L38.5264 23.7813V22.668L43.2588 18.7315C43.2602 18.7238 43.2631 18.7148 43.2646 18.7051C43.278 18.6221 43.2917 18.4935 43.3066 18.3154L43.3076 18.3106V18.3047C43.3525 17.9325 43.3982 17.4997 43.4434 17.0059C43.4883 16.5136 43.5256 16.0061 43.5557 15.4834C43.5856 14.9619 43.608 14.5292 43.623 14.1865V13.3457C43.6379 12.9898 43.6455 12.5956 43.6455 12.1631V10.7568C43.6604 10.2817 43.6613 9.83717 43.6465 9.42383L43.6455 9.41797V9.41309C43.6455 8.98071 43.6379 8.60231 43.623 8.27735V7.542C43.623 7.53972 43.6224 7.52079 43.6133 7.47852C43.6041 7.43612 43.5886 7.3801 43.5674 7.30958L43.5635 7.29688L43.5605 7.28321C43.5318 7.14027 43.4958 6.98858 43.4521 6.82911L43.4482 6.81739L43.4463 6.80469C43.4182 6.65085 43.3829 6.51459 43.3428 6.39454L43.3408 6.38575C43.3264 6.33777 43.3115 6.29677 43.2998 6.26172C42.8575 6.23917 42.4083 6.27209 41.9521 6.36036C41.4143 6.46444 40.884 6.58403 40.3613 6.71778C39.8253 6.85494 39.2884 6.96904 38.7519 7.06055L38.751 7.05958C38.2068 7.15485 37.681 7.15592 37.1758 7.0586L37.0312 7.03125L36.9687 6.89844C36.8733 6.69629 36.8692 6.4813 36.96 6.27637C37.0448 6.08501 37.2031 5.92085 37.3965 5.77833C37.7981 5.47854 38.3564 5.23341 39.0527 5.03321C39.7503 4.81768 40.5581 4.6498 41.4736 4.52833C42.3946 4.39112 43.3455 4.33049 44.3252 4.34571ZM57.5771 5.27051C58.0347 5.25369 58.5935 5.36295 59.2422 5.57813L59.3477 5.61915C59.4486 5.67044 59.5341 5.74892 59.6045 5.82813C59.6545 5.87791 59.7 5.92712 59.7363 5.97364C59.7611 6.00539 59.7907 6.04615 59.8135 6.09375L59.834 6.14356L59.8418 6.167L59.8447 6.19141C59.874 6.3806 59.9256 6.67442 60 7.07422L60.1426 7.73145C60.1918 7.96488 60.242 8.21349 60.2949 8.47657C60.401 8.98936 60.5073 9.53208 60.6133 10.1045C60.7335 10.6581 60.8468 11.1976 60.9521 11.7217C61.0572 12.2295 61.1471 12.6865 61.2227 13.0918L61.4258 13.9922L61.4277 13.9971C61.6518 15.0525 61.9197 15.7389 62.207 16.1055L62.3184 16.2344C62.5779 16.5086 62.8252 16.6215 63.0576 16.6309C63.3616 16.643 63.6886 16.5479 64.043 16.3174C64.4464 16.0497 64.842 15.7737 65.2305 15.4912C65.6276 15.1875 66.005 14.9278 66.3613 14.7119C66.6502 14.5369 66.9495 14.4465 67.2383 14.4883C67.2097 14.2354 67.1729 13.9479 67.125 13.626L67.124 13.6201V13.6152C67.079 13.212 67.0259 12.7856 66.9658 12.3369C66.9056 11.8874 66.8453 11.4599 66.7852 11.0557C66.7248 10.6502 66.6722 10.2973 66.627 9.99708L66.625 9.9834C66.5948 9.68247 66.5727 9.48509 66.5586 9.38672C66.5263 9.16204 66.5107 8.92965 66.5107 8.69141V8.67286C66.5276 8.4211 66.579 8.18982 66.6719 7.98633C66.7785 7.75321 66.9575 7.58362 67.1992 7.4961V7.49708C67.4312 7.40039 67.707 7.42192 67.9902 7.50098L68.1152 7.53907L68.3037 7.60157L68.3125 7.79981C68.3275 8.11235 68.3508 8.48526 68.3809 8.91895C68.4257 9.33437 68.4774 9.77321 68.5371 10.2334C68.5966 10.6924 68.6716 11.1441 68.7607 11.5879C68.7869 11.7179 68.8158 11.8447 68.8457 11.9678C68.9373 11.7318 69.0278 11.5111 69.1162 11.3057L69.1172 11.3008C69.3194 10.852 69.5465 10.4396 69.7979 10.0645C70.0476 9.69175 70.329 9.34179 70.6406 9.01563C70.9538 8.67291 71.3266 8.32513 71.7578 7.97266C72.2913 7.53302 72.8249 7.2761 73.3145 7.39551C73.785 7.49313 74.1386 7.82117 74.3906 8.30079L74.4863 8.47657C74.7023 8.90092 74.8753 9.41977 75.0107 10.0264C75.1631 10.7089 75.3003 11.4367 75.4219 12.208L75.7832 14.4316L75.8887 14.9463C75.9995 15.4424 76.1266 15.8857 76.2686 16.2773C76.4532 16.772 76.6704 17.1136 76.9062 17.3272C77.091 17.4723 77.3377 17.5079 77.7246 17.3154L78.0225 17.166L78.1289 17.4815C78.2679 17.8964 78.3191 18.2961 78.1582 18.6025L78.1592 18.6035C78.0161 18.8884 77.752 19.0369 77.4365 19.0762L77.4287 19.0772L77.4199 19.0781C77.1303 19.0973 76.8107 19.0195 76.4717 18.875L76.4658 18.8731L76.4609 18.8701C76.1236 18.7103 75.7889 18.5048 75.458 18.2539L75.4521 18.2481L75.4463 18.2432C75.1242 17.9707 74.8359 17.6516 74.5811 17.2871C74.3194 16.9128 74.1374 16.5103 74.0381 16.082L74.0371 16.0801C73.9718 15.7875 73.9184 15.3261 73.873 14.709C73.8282 14.0989 73.7599 13.4429 73.6699 12.7412C73.5812 12.0496 73.4411 11.3726 73.249 10.7109L73.2471 10.7031C73.1098 10.1794 72.9248 9.75457 72.7002 9.41993L71.376 10.7002C71.3728 10.7064 71.3695 10.7156 71.3643 10.7266C71.3474 10.7617 71.3252 10.8117 71.2979 10.877C71.2432 11.0075 71.1711 11.1917 71.0811 11.4307C70.916 11.9087 70.7286 12.4617 70.5186 13.0889L70.5176 13.0898C70.3073 13.7026 70.1045 14.3316 69.9092 14.9746L69.9082 14.9756C69.7133 15.6022 69.5727 16.1058 69.4844 16.4863C69.4577 16.6057 69.4214 16.8479 69.376 17.2246V17.2256C69.3309 17.5842 69.2854 17.9734 69.2402 18.3926C69.1952 18.811 69.1579 19.2074 69.1279 19.5801C69.1132 19.9345 69.1064 20.1811 69.1064 20.3232V20.3916L69.0762 20.4522C68.9922 20.6192 68.8791 20.7625 68.7314 20.8643C68.5813 20.9676 68.4099 21.0175 68.2275 21.0176C68.0449 21.0176 67.8729 20.9678 67.7227 20.8643C67.575 20.7625 67.4628 20.6191 67.3789 20.4522L67.3428 20.3809L67.3496 20.3008C67.3637 20.1176 67.3711 19.7893 67.3711 19.3086V16.2432C67.3711 16.158 67.3688 16.0776 67.3682 16.002C67.2446 16.2195 67.1027 16.4282 66.9414 16.626C66.7489 16.8654 66.5332 17.0896 66.2939 17.2959C66.0616 17.4962 65.8414 17.6682 65.6348 17.8106L65.6299 17.8135C64.8235 18.3437 64.103 18.6644 63.4795 18.7305L63.3564 18.7402C62.7416 18.7733 62.1967 18.6323 61.7422 18.3018C61.3066 17.9848 60.9614 17.5545 60.7021 17.0225C60.457 16.5193 60.2344 16.0079 60.0352 15.4893L60.0322 15.4824C59.8533 14.9781 59.6756 14.536 59.499 14.1553L59.4961 14.1484L59.4941 14.1436C59.4335 13.9954 59.37 13.8785 59.3086 13.7881C59.2605 13.9525 59.2024 14.1464 59.1328 14.3682C58.9968 14.849 58.8464 15.3597 58.6807 15.8994C58.5144 16.4408 58.3553 16.9522 58.2041 17.4336C58.0532 17.914 57.9479 18.2515 57.8877 18.4463L57.8838 18.458L57.8789 18.4688C57.8444 18.5546 57.7736 18.7025 57.6728 18.9033L57.5059 19.2549C57.4425 19.377 57.3717 19.5041 57.2939 19.6357L57.29 19.6416C57.1326 19.8923 56.9515 20.1415 56.749 20.3897C56.5558 20.63 56.3471 20.825 56.1211 20.9658H56.1221C56.118 20.9687 56.1135 20.9718 56.1094 20.9746L56.1084 20.9736C55.8619 21.1394 55.5882 21.211 55.3027 21.1455C54.9734 21.0699 54.7468 20.7854 54.585 20.4473C54.2677 19.7843 54.0907 19.1074 54.0586 18.4199V18.4141C54.0431 17.7522 54.0824 17.0759 54.1748 16.3857C54.1914 16.1653 54.2291 15.8467 54.2881 15.4356C54.3485 15.0145 54.4167 14.5481 54.4922 14.0371C54.5678 13.5252 54.6515 12.983 54.7422 12.4111C54.8326 11.8411 54.9149 11.3008 54.9902 10.791C55.0657 10.28 55.1338 9.82879 55.1943 9.4375L55.1963 9.42774C55.2716 9.02294 55.323 8.72586 55.3525 8.53516L55.3535 8.53028L55.3555 8.5254C55.4775 7.88776 55.608 7.34281 55.748 6.89356L55.749 6.88672L56.0244 6.97852L55.75 6.88672C55.9099 6.40969 56.1249 6.01928 56.4082 5.73731L56.415 5.73243C56.7287 5.43868 57.1232 5.28789 57.5771 5.27051ZM97.5107 5.41114C97.6868 5.37433 97.8651 5.37098 98.0303 5.42579C98.1962 5.48095 98.3262 5.58861 98.4189 5.73243H98.4199C98.4213 5.73441 98.4225 5.73727 98.4238 5.73926C98.4251 5.7412 98.4264 5.74318 98.4277 5.74512C98.537 5.90969 98.5732 6.11542 98.5732 6.3252C98.5732 6.54455 98.5337 6.80197 98.4629 7.0918V7.09375C98.2905 7.78008 98.0245 8.45008 97.666 9.10157L97.665 9.10059C97.3315 9.71903 96.9838 10.3378 96.6201 10.9561L96.6182 10.959C96.2588 11.5551 95.9134 12.1512 95.584 12.7471V12.7481C95.2781 13.328 95.0606 13.913 94.9307 14.502V14.5039C94.8615 14.8068 94.8252 15.1898 94.8252 15.6572C94.8252 16.1011 94.8755 16.5458 94.9766 16.9912C95.0751 17.4253 95.2354 17.8224 95.458 18.1836C95.6649 18.5053 95.9462 18.7276 96.3086 18.8565L96.3125 18.8574C96.7487 19.0202 97.1788 19.0595 97.6074 18.9795C98.0572 18.8955 98.4952 18.7347 98.9219 18.4941L98.9258 18.4922C99.3733 18.2479 99.8007 17.9449 100.208 17.583C100.623 17.1995 101.008 16.8092 101.362 16.4121C101.721 16.0111 102.04 15.6258 102.322 15.2568C102.608 14.8683 102.848 14.5394 103.043 14.2705L103.248 13.9883L103.874 14.6475L103.872 14.6484C104.041 14.8132 104.007 15.0469 103.972 15.1787C103.928 15.3429 103.836 15.5377 103.711 15.7549L103.71 15.7539C103.471 16.1959 103.121 16.6909 102.663 17.2373V17.2383C102.216 17.7757 101.685 18.3267 101.073 18.8897C100.456 19.4578 99.8128 19.9354 99.1445 20.3223C98.4827 20.7143 97.8129 20.9622 97.1357 21.0586H97.1367C96.4813 21.154 95.8787 21.0091 95.3447 20.6289L95.2393 20.5498C94.5772 20.0321 94.0455 19.425 93.6484 18.7295L93.6445 18.7236C93.3317 18.1399 93.0801 17.5234 92.8877 16.876C92.8544 16.8937 92.8197 16.9111 92.7842 16.9287C92.5904 17.0251 92.3888 17.1055 92.1797 17.1699C91.9849 17.2345 91.7893 17.2838 91.5928 17.3164L91.5811 17.3184L91.5684 17.3193C91.3621 17.3364 91.1475 17.3175 90.9766 17.2041L90.9658 17.1973L90.9561 17.1895C90.7581 17.0318 90.744 16.7972 90.7861 16.6084L90.7891 16.5986L90.792 16.5879C90.8564 16.3747 91.0372 16.117 91.2783 15.832C91.3349 15.7574 91.4389 15.6475 91.5664 15.5205L91.5762 15.5107C91.7419 15.3608 91.9149 15.2031 92.0957 15.0381L92.5225 14.6133C92.5248 14.611 92.522 14.6137 92.5244 14.6113C92.5273 14.6085 92.5256 14.6111 92.5283 14.6084L92.5791 14.5576C92.6522 14.4776 92.7099 14.4131 92.752 14.3643C92.7731 14.3398 92.7895 14.32 92.8018 14.3047C92.8039 14.302 92.8058 14.2992 92.8076 14.2969C92.952 13.9617 93.0409 13.5906 93.0684 13.1807V13.1709L93.0977 12.8379C93.1226 12.5016 93.1348 12.1566 93.1348 11.8027V11.794C93.15 11.2922 93.1807 10.7976 93.2266 10.3106C93.2745 9.80151 93.3952 9.32089 93.5889 8.8711L93.5898 8.86915C93.7113 8.59294 93.9271 8.27563 94.2207 7.92188L94.2217 7.9209C94.5321 7.55018 94.8728 7.19519 95.2441 6.85645L95.25 6.85157C95.6353 6.51418 96.0221 6.2138 96.4102 5.95118C96.8138 5.67332 97.1818 5.48404 97.5068 5.41211L97.5107 5.41114ZM34.4072 0.177739C34.775 -0.0326832 35.1981 -0.0494288 35.6465 0.0927783C35.7312 0.106117 35.8021 0.141623 35.8525 0.176763C35.9113 0.217733 35.965 0.271271 36.0146 0.327153C36.0716 0.377083 36.1253 0.431072 36.167 0.490239C36.2107 0.552414 36.2588 0.644949 36.2588 0.757817V0.85645L36.1973 0.934575C36.092 1.06922 35.9642 1.23475 35.8135 1.42969L35.8066 1.4375C35.6626 1.60949 35.5173 1.79704 35.3721 1.99903C35.2387 2.20558 35.1053 2.42001 34.9717 2.64161L34.9668 2.64942V2.64844C34.8493 2.83037 34.7668 3.00085 34.7148 3.15821C34.7023 3.34303 34.6963 3.62312 34.6963 4.00293C34.6963 4.40985 34.6878 4.87598 34.6728 5.4004H34.6738V7.02344H34.6728C34.6879 7.57909 34.6963 8.12032 34.6963 8.64649V10.0215C34.6963 10.4258 34.7036 10.7176 34.7178 10.9014L34.7187 10.9121V10.9229C34.7187 11.0309 34.7327 11.3105 34.7627 11.7734L34.8984 13.2432C34.9436 13.768 34.989 14.263 35.0342 14.7275C35.079 15.1883 35.1035 15.4976 35.1035 15.6348V16.333C35.1184 16.649 35.1269 16.9726 35.1269 17.3027C35.1269 17.6317 35.1184 17.9397 35.1035 18.2266V18.7734L35.0986 18.8018C35.078 18.9043 35.0311 19.0378 34.9697 19.1904C34.8973 19.3705 34.7965 19.5337 34.6689 19.6787C34.5336 19.8326 34.371 19.9476 34.1807 20.0107L34.167 20.0147L34.1514 20.0186C33.8666 20.0813 33.6179 19.9236 33.4307 19.7373L30.6689 17.0117L30.6436 16.9873L30.625 16.958L25.5635 8.78711L25.4551 8.71875V20.3232C25.455 20.4554 25.4339 20.5919 25.3701 20.7119C25.3082 20.8282 25.2111 20.913 25.0898 20.9629V20.9639C24.8953 21.0606 24.6828 21.0639 24.4736 21.0107V21.0117C24.2951 20.9762 24.1191 20.9146 23.9473 20.8291L23.9375 20.8232L23.9277 20.8184C23.8423 20.7673 23.7644 20.7128 23.7002 20.6543C23.6378 20.5974 23.5735 20.5227 23.5361 20.4297L23.5205 20.3916L23.5166 20.3496C23.3047 18.0599 23.1616 15.7693 23.0859 13.4795V13.4785C23.0254 11.1888 23.0327 8.89813 23.1084 6.6084L23.1094 6.5586L23.1289 6.51075C23.1623 6.42769 23.2252 6.28546 23.3154 6.09083L23.3193 6.08301C23.4336 5.85566 23.5662 5.65007 23.7168 5.4668L23.7187 5.46387C23.8961 5.25221 24.1056 5.09428 24.3486 5.01368V5.01465C24.4918 4.95998 24.6432 4.95066 24.793 4.99415C24.9439 5.03802 25.0753 5.12867 25.1885 5.24122L27.1836 7.22754L27.2012 7.25684L32.7002 16.2637L32.7939 16.3955C32.8768 16.4915 32.9739 16.5963 33.0869 16.709C33.1668 16.7781 33.2466 16.8375 33.3242 16.8906C33.3077 16.6743 33.2864 16.3991 33.2568 16.0654C33.2116 15.5553 33.158 14.9851 33.0977 14.3545L33.0967 14.3477C33.0515 13.7032 32.9997 13.028 32.9394 12.3232C32.8791 11.6178 32.8181 10.9421 32.7578 10.2969V10.29C32.7126 9.64529 32.6672 9.06831 32.6221 8.55958L32.6211 8.55079C32.5909 8.04023 32.5688 7.66467 32.5537 7.42481L32.5361 7.02149C32.5323 6.85667 32.5303 6.6616 32.5303 6.4375C32.5303 5.96269 32.5538 5.43619 32.5996 4.85938L32.6006 4.85254C32.6617 4.27461 32.7458 3.68135 32.8525 3.07422V3.06739C32.9768 2.44914 33.1501 1.90042 33.373 1.42481C33.5973 0.931577 33.8872 0.542703 34.2529 0.280278L34.4072 0.177739ZM82.4199 7.60352C82.7584 7.41248 83.1273 7.34084 83.4434 7.54004L83.5059 7.58399L83.5947 7.65235L83.6143 7.76172C83.6447 7.92815 83.6971 8.23459 83.7715 8.67872C83.8628 9.11791 83.9457 9.59366 84.0215 10.1055L84.1475 10.8389C84.1849 11.0737 84.2189 11.3032 84.249 11.5273L84.4072 12.4277L84.4082 12.4346C84.442 12.6534 84.4499 12.8855 84.4336 13.1289V13.1299C84.4164 13.3689 84.3648 13.5963 84.2764 13.8076L84.2725 13.8154H84.2715C84.1654 14.0473 83.9864 14.2207 83.7529 14.3369L83.749 14.3398L83.7441 14.3418C83.4819 14.4604 83.1701 14.4306 82.8564 14.332L82.6826 14.2773L82.6572 14.0977C82.6454 14.0156 82.6058 13.8534 82.5303 13.5977L82.5254 13.582C82.4669 13.3346 82.3943 13.0705 82.3057 12.791L82.3027 12.7822L82.3008 12.7734C82.2272 12.4807 82.1467 12.2115 82.0596 11.9658L82.0557 11.957L82.0537 11.9473C81.9931 11.7301 81.9462 11.5668 81.915 11.457L81.7607 11.3037C81.4199 11.5773 81.1205 11.9423 80.8682 12.4072C80.5795 12.9674 80.3693 13.5808 80.2383 14.2471V14.2481C80.1083 14.8949 80.0718 15.5492 80.1289 16.2109L80.1611 16.4502C80.244 16.9944 80.396 17.4785 80.6152 17.9053L80.7168 18.0742C80.9651 18.4556 81.2844 18.7509 81.6758 18.9639C82.1086 19.1769 82.6665 19.22 83.375 19.0508L83.376 19.0498C84.0973 18.8808 84.9616 18.4665 85.9727 17.7861C86.9753 17.0965 88.1303 16.0539 89.4365 14.6494L89.9385 14.1084V15.6348C89.9384 15.7192 89.9041 15.7895 89.8916 15.8145C89.8727 15.852 89.848 15.8913 89.8223 15.9297C89.7701 16.0076 89.696 16.1057 89.6035 16.2207C89.42 16.449 89.1983 16.7137 88.9404 17.0156L88.9365 17.0215H88.9355C88.677 17.309 88.4113 17.5974 88.1377 17.8848V17.8838C87.8812 18.1689 87.6579 18.3995 87.4688 18.5723C86.9603 19.0475 86.4138 19.4845 85.8291 19.8828C85.2485 20.2888 84.6413 20.5959 84.0078 20.8008C83.3655 21.0085 82.7059 21.0722 82.0322 20.9932H82.0264V20.9922C81.3444 20.9246 80.6777 20.636 80.0283 20.1475C79.4337 19.6997 78.9932 19.1578 78.7148 18.5225L78.7109 18.5137C78.4565 17.8807 78.3148 17.2026 78.2832 16.4815V16.4746C78.2676 15.7436 78.3457 14.9987 78.5166 14.2412V14.2363C78.7012 13.4862 78.9409 12.7585 79.2334 12.0537C79.525 11.3512 79.8473 10.6994 80.2021 10.1006L80.2041 10.0986C80.5721 9.48828 80.9433 8.97044 81.3193 8.54883C81.6924 8.1157 82.0586 7.79285 82.4199 7.60352ZM14.4053 0.404302C14.5094 0.3508 14.6546 0.300947 14.8086 0.344731C14.9475 0.384314 15.0317 0.480204 15.0811 0.57813L15.1191 0.673833L15.124 0.688481L15.5088 2.24415L15.5146 2.27149L15.5166 2.29981C15.562 3.3243 15.5996 4.51425 15.6299 5.86817C15.6599 7.21302 15.7427 8.59581 15.8779 10.0166C16.0128 11.4329 16.2298 12.8271 16.5293 14.1982C16.8256 15.5546 17.2686 16.7579 17.8555 17.8106C17.8909 17.8689 17.955 17.9585 18.0527 18.084C18.1532 18.1981 18.2614 18.3127 18.377 18.4277C18.4898 18.54 18.6019 18.6462 18.7139 18.7441C18.7682 18.7845 18.811 18.8139 18.8428 18.834C18.8589 18.8442 18.8706 18.8506 18.8779 18.8545H18.875L18.8906 18.8604C18.9698 18.8919 19.1121 18.908 19.3447 18.8672C19.613 18.8201 19.8884 18.7881 20.1709 18.7725C20.4605 18.7421 20.7397 18.7585 21.0068 18.8223H21.0078C21.0104 18.8227 21.0131 18.8228 21.0156 18.8232C21.0195 18.8242 21.0234 18.8252 21.0273 18.8262L21.1514 18.8574C21.4313 18.9441 21.6457 19.1317 21.7832 19.4053C21.9268 19.6913 21.9767 20.0112 21.7842 20.2852H21.7832C21.6434 20.4902 21.4211 20.6243 21.1631 20.71C20.906 20.7952 20.6136 20.8434 20.292 20.8594C19.9808 20.8748 19.6696 20.8748 19.3584 20.8594H19.3506L19.3428 20.8584C19.0349 20.8278 18.7482 20.7887 18.4834 20.7422C18.2317 20.698 18.0257 20.6482 17.8867 20.5908V20.5928C17.3278 20.3801 16.8494 20.0435 16.4561 19.5869L16.4492 19.5781C16.0892 19.1264 15.7771 18.6356 15.5117 18.1074L15.5068 18.0986C15.2587 17.5585 15.0575 17.0019 14.9023 16.4307L14.9004 16.4238C14.7638 15.8649 14.6492 15.3568 14.5576 14.9014L14.5566 14.8984C14.5102 14.6521 14.4496 14.2718 14.374 13.7607L14.373 13.752C14.313 13.2292 14.2377 12.6524 14.1475 12.0234L14.1465 12.0156C14.0711 11.3709 13.9879 10.6962 13.8975 9.99122L13.8965 9.9834L13.7832 8.9375L13.6709 7.95899L13.5264 6.73047L11.2051 16.0869L11.1963 16.1231L11.1777 16.1553L11.042 16.4033C10.972 16.5549 10.8743 16.7144 10.7529 16.8809C10.6398 17.0417 10.5112 17.2022 10.3682 17.3604C10.213 17.5319 10.0416 17.6686 9.85254 17.7627L9.84668 17.7666L9.83984 17.7686C9.65145 17.8518 9.45255 17.8764 9.25195 17.832C8.98098 17.772 8.80824 17.5391 8.69336 17.2969L3.20312 6.41309L1.76562 17.2051V17.208L1.47754 17.167L1.76465 17.208C1.72705 17.4698 1.6096 17.7194 1.34668 17.8359L1.33301 17.8418L1.32031 17.8467C1.12215 17.9123 0.916932 17.909 0.714842 17.8486L0.697263 17.8438L0.680662 17.8359C0.499696 17.7558 0.338482 17.6309 0.196287 17.4717L0.190427 17.4648L0.184568 17.457C0.0273872 17.2559 -0.0271556 17.0182 0.0126931 16.7676L1.9834 2.27442H1.98437C1.99372 2.17939 2.03372 2.10077 2.07226 2.0459C2.11776 1.98123 2.17735 1.92183 2.24023 1.86817C2.36859 1.75869 2.51413 1.6693 2.67383 1.59864C2.83841 1.52586 3.00719 1.4834 3.17676 1.4834C3.27288 1.47681 3.3777 1.48695 3.47656 1.53614C3.58951 1.59241 3.66587 1.68494 3.71191 1.78907H3.71289L9.56054 14.7275L12.9756 1.83399L12.9785 1.82422L12.9814 1.81543C12.9962 1.77147 13.0191 1.73231 13.0342 1.70801C13.0518 1.67971 13.0736 1.6495 13.0967 1.61817C13.1432 1.55505 13.2054 1.47655 13.2822 1.38477C13.4415 1.17974 13.6168 0.989554 13.8076 0.815435C13.9978 0.641976 14.1907 0.505395 14.3857 0.414067L14.4014 0.407231C14.4026 0.406509 14.404 0.404884 14.4053 0.404302ZM96.4238 20.7734C96.2801 20.7509 96.14 20.7139 96.0039 20.6611C96.1401 20.7138 96.2801 20.7509 96.4238 20.7734ZM81.3643 20.5527C81.5084 20.6022 81.6527 20.6396 81.7969 20.667C81.6527 20.6396 81.5084 20.6022 81.3643 20.5527ZM54.9639 20.5342H54.9648H54.9639ZM67.751 20.5H67.752H67.751ZM23.8965 20.4414H23.8955H23.8965ZM94.5635 19.5176H94.5625H94.5635ZM97.6611 19.2637H97.6602C97.5397 19.2861 97.4193 19.3 97.2988 19.3057C97.4195 19.3 97.5405 19.2862 97.6611 19.2637ZM84.6934 18.8691C84.4688 18.978 84.2525 19.0715 84.0439 19.1484L84.3633 19.0205C84.4714 18.9741 84.5813 18.9235 84.6934 18.8691ZM99.0645 18.7451H99.0654H99.0645ZM76.585 18.6094C76.9018 18.7445 77.174 18.8049 77.4004 18.79C77.3439 18.7938 77.2847 18.7927 77.2227 18.7871C77.0358 18.7702 76.8237 18.7108 76.5859 18.6094H76.585ZM100.08 18.0684C99.9715 18.1548 99.8614 18.2375 99.75 18.3164L100.08 18.0693C100.189 17.983 100.296 17.8927 100.401 17.7988L100.08 18.0684ZM57.9648 6.95606C57.8213 7.28469 57.682 7.65979 57.5469 8.08106C57.323 8.77901 57.1291 9.49262 56.9648 10.2207H56.9639C56.7986 10.9385 56.6561 11.619 56.5361 12.2607C56.4311 12.8882 56.357 13.3714 56.3125 13.7109L56.3105 13.7207C56.284 13.8795 56.2622 14.1927 56.2471 14.6748V17.7217L56.251 17.8174C56.5843 17.2277 56.8962 16.5777 57.1826 15.8652C57.5983 14.8159 57.9102 13.7373 58.1182 12.6289V12.626C58.3404 11.5052 58.43 10.3998 58.3857 9.31153C58.3515 8.46061 58.2092 7.67626 57.9648 6.95606ZM56.7773 17.4551H56.7783H56.7773ZM33.3516 17.2227V17.2217V17.2227ZM91.3076 17.0264C91.3413 17.0319 91.3778 17.0352 91.417 17.0361C91.3778 17.0352 91.3413 17.0319 91.3076 17.0264ZM93.1396 16.709H93.1406L93.0625 16.4238L93.1396 16.709ZM48.4228 6.5586C47.7885 6.23039 46.9113 6.11228 45.7656 6.24122V16.877C46.5152 16.5139 47.1879 16.0272 47.7812 15.4121L48.043 15.1289C48.638 14.4633 49.1143 13.7503 49.4717 12.9883L49.4727 12.9844C49.897 12.1108 50.1513 11.2344 50.2383 10.3545C50.325 9.46231 50.2155 8.69485 49.9228 8.04297C49.6363 7.4049 49.1445 6.91076 48.4287 6.56153L48.4228 6.5586ZM64.2012 16.5586H64.2021H64.2012ZM91.1211 16.5459H91.1221H91.1211ZM32.458 16.4238L32.5713 16.5811L32.458 16.4229L26.9541 7.40723L32.458 16.4238ZM91.499 16.0176H91.5H91.499ZM92.79 14.7549C92.6391 14.9051 92.4731 15.0707 92.292 15.251H92.293C92.474 15.0708 92.6401 14.9051 92.791 14.7549H92.79ZM102.553 15.4316H102.554H102.553ZM13.2559 1.90723L9.63183 15.5889V15.5898L13.2568 1.90723H13.2559ZM66.2471 15.124C66.0677 15.2405 65.8831 15.3688 65.6924 15.5078L65.9746 15.3076C66.067 15.2438 66.1575 15.1822 66.2471 15.124ZM67.3721 15.2363C67.3844 15.1822 67.3951 15.128 67.4023 15.0732C67.3953 15.128 67.3843 15.1821 67.3721 15.2363ZM93.1738 14.1514H93.1748H93.1738ZM82.5811 12.7041C82.6716 12.9896 82.7472 13.2602 82.8076 13.5156H82.8086C82.7482 13.2602 82.6726 12.9896 82.582 12.7041H82.5811ZM49.5684 13.4443V13.4453V13.4443ZM93.3564 13.2002H93.3574H93.3564ZM69.3828 11.419H69.3818H69.3828ZM95.3496 11.1992C95.1234 11.6383 94.8888 12.0638 94.6475 12.4766L94.6484 12.4785C94.89 12.0654 95.1232 11.6387 95.3496 11.1992ZM51.8789 11.3066C51.8091 11.502 51.7294 11.6972 51.6406 11.8926C51.7294 11.6972 51.8091 11.502 51.8789 11.3066ZM14.1855 9.95411H14.1846H14.1855ZM96.5508 7.56641C96.4454 7.63588 96.3434 7.71424 96.2451 7.80176V7.80274C95.9972 8.02205 95.7815 8.28454 95.5996 8.59083L95.5967 8.59571C95.4125 8.89177 95.2633 9.2099 95.1494 9.54981C95.0493 9.8934 94.9783 10.2284 94.9355 10.5547L94.9346 10.5645L94.9326 10.5742C94.9216 10.6291 94.9074 10.7447 94.8926 10.9336V11.4434C95.1876 10.8916 95.4727 10.3186 95.7432 9.72266C96.0675 9.00799 96.3352 8.28871 96.5508 7.56641ZM73.0898 9.50196C73.1611 9.63023 73.2282 9.76696 73.2891 9.91309C73.2282 9.76695 73.1611 9.63023 73.0898 9.50196ZM32.9785 9.35157H32.9795H32.9785ZM81.54 8.73731H81.5391H81.54ZM66.7998 8.69141H66.8008H66.7998ZM71.9414 8.19629C71.73 8.36909 71.5337 8.53995 71.3525 8.70899H71.3535C71.5347 8.53996 71.731 8.36908 71.9424 8.19629H71.9414ZM58.6064 8.47461H58.6074H58.6064ZM96.6934 8.08594H96.6943H96.6934ZM66.9355 8.10547H66.9365H66.9355ZM95.4404 7.06934H95.4414H95.4404ZM41.8965 6.07715H41.8975H41.8965ZM48.1865 5.20411V5.20313V5.20411ZM34.6787 0.366216H34.6797H34.6787Z" />
</svg>
