<svg width="16" height="16" viewBox="0 0 16 16" xmlns="http://www.w3.org/2000/svg">
<path d="M14.3978 4.24479C14.6307 4.09646 14.9402 4.16497 15.0885 4.39779C15.2369 4.63066 15.1684 4.94016 14.9355 5.08854L8.94141 8.90625C8.93565 8.90992 8.92973 8.91389 8.92383 8.91732C8.64424 9.07968 8.32656 9.16467 8.00325 9.16471C7.67982 9.16471 7.36171 9.07976 7.08203 8.91732C7.0762 8.91393 7.07079 8.90987 7.0651 8.90625L1.0651 5.08854C0.832182 4.94033 0.763341 4.63139 0.911457 4.39844C1.05967 4.16552 1.36861 4.09668 1.60156 4.24479L7.58398 8.05208C7.71111 8.12592 7.85624 8.16471 8.00325 8.16471C8.15013 8.16467 8.2942 8.12583 8.42122 8.05208L14.3978 4.24479Z" />
<path d="M14.1667 4C14.1667 3.53976 13.7936 3.16667 13.3333 3.16667H2.66667C2.20643 3.16667 1.83333 3.53976 1.83333 4V12C1.83333 12.4602 2.20643 12.8333 2.66667 12.8333H13.3333C13.7936 12.8333 14.1667 12.4602 14.1667 12V4ZM15.1667 12C15.1667 13.0125 14.3459 13.8333 13.3333 13.8333H2.66667C1.65414 13.8333 0.833332 13.0125 0.833332 12V4C0.833332 2.98748 1.65414 2.16667 2.66667 2.16667H13.3333C14.3459 2.16667 15.1667 2.98748 15.1667 4V12Z" fill="#171717"/>
</svg>
