<svg width="16" height="16" viewBox="0 0 16 16" xmlns="http://www.w3.org/2000/svg">
<path d="M13.5 3.33333C13.5 3.11232 13.4121 2.90042 13.2559 2.74414C13.0996 2.58786 12.8877 2.5 12.6667 2.5H3.33333C3.11232 2.5 2.90042 2.58786 2.74414 2.74414C2.58786 2.90042 2.5 3.11232 2.5 3.33333V12.793L4.31315 10.9798L4.38932 10.9173C4.47086 10.863 4.56723 10.8333 4.66667 10.8333H12.6667C12.8877 10.8333 13.0996 10.7455 13.2559 10.5892C13.4121 10.4329 13.5 10.221 13.5 10V3.33333ZM14.5 10C14.5 10.4862 14.3067 10.9524 13.9629 11.2962C13.6191 11.64 13.1529 11.8333 12.6667 11.8333H4.8737L2.35352 14.3535C2.21053 14.4965 1.99542 14.5396 1.80859 14.4622C1.62176 14.3848 1.5 14.2022 1.5 14V3.33333C1.5 2.8471 1.69329 2.38093 2.03711 2.03711C2.38093 1.69329 2.8471 1.5 3.33333 1.5H12.6667C13.1529 1.5 13.6191 1.69329 13.9629 2.03711C14.3067 2.38093 14.5 2.8471 14.5 3.33333V10Z" />
</svg>
