<svg width="16" height="16" viewBox="0 0 16 16" xmlns="http://www.w3.org/2000/svg">
<g clip-path="url(#clip0_210_8765)">
<path d="M14.1667 9.33334C14.1667 9.05719 14.3905 8.83334 14.6667 8.83334C14.9428 8.83334 15.1667 9.05719 15.1667 9.33334C15.1667 10.8804 14.5523 12.3644 13.4583 13.4583C12.3644 14.5523 10.8804 15.1667 9.33333 15.1667C9.05719 15.1667 8.83333 14.9428 8.83333 14.6667C8.83333 14.3905 9.05719 14.1667 9.33333 14.1667C10.6152 14.1667 11.8449 13.6577 12.7513 12.7513C13.6577 11.8449 14.1667 10.6152 14.1667 9.33334Z"/>
<path d="M11.5 7.33334V6.66667C11.5 6.44566 11.4121 6.23376 11.2559 6.07748C11.0996 5.9212 10.8877 5.83334 10.6667 5.83334C10.4457 5.83334 10.2338 5.9212 10.0775 6.07748C9.92119 6.23376 9.83333 6.44566 9.83333 6.66667C9.83333 6.94281 9.60948 7.16667 9.33333 7.16667C9.05719 7.16667 8.83333 6.94281 8.83333 6.66667C8.83333 6.18044 9.02663 5.71426 9.37044 5.37045C9.71426 5.02663 10.1804 4.83334 10.6667 4.83334C11.1529 4.83334 11.6191 5.02663 11.9629 5.37045C12.3067 5.71426 12.5 6.18044 12.5 6.66667V7.33334C12.5 7.60948 12.2761 7.83334 12 7.83334C11.7239 7.83334 11.5 7.60948 11.5 7.33334Z" />
<path d="M8.83333 6.66667V6C8.83333 5.77899 8.74547 5.56709 8.58919 5.41081C8.43291 5.25453 8.22101 5.16667 8 5.16667C7.77899 5.16667 7.56709 5.25453 7.41081 5.41081C7.25453 5.56709 7.16667 5.77899 7.16667 6V6.66667C7.16667 6.94281 6.94281 7.16667 6.66667 7.16667C6.39052 7.16667 6.16667 6.94281 6.16667 6.66667V6C6.16667 5.51377 6.35996 5.0476 6.70378 4.70378C7.04759 4.35996 7.51377 4.16667 8 4.16667C8.48623 4.16667 8.95241 4.35996 9.29622 4.70378C9.64004 5.0476 9.83333 5.51377 9.83333 6V6.66667C9.83333 6.94281 9.60948 7.16667 9.33333 7.16667C9.05719 7.16667 8.83333 6.94281 8.83333 6.66667Z" />
<path d="M6.16667 6.33334V2.66667C6.16667 2.44566 6.07881 2.23376 5.92253 2.07748C5.76625 1.9212 5.55435 1.83334 5.33333 1.83334C5.11232 1.83334 4.90042 1.9212 4.74414 2.07748C4.58786 2.23376 4.5 2.44566 4.5 2.66667V9.33334C4.5 9.60948 4.27614 9.83334 4 9.83334C3.72386 9.83334 3.5 9.60948 3.5 9.33334V2.66667C3.5 2.18044 3.69329 1.71426 4.03711 1.37045C4.38093 1.02663 4.8471 0.833336 5.33333 0.833336C5.81956 0.833336 6.28574 1.02663 6.62956 1.37045C6.97337 1.71426 7.16667 2.18044 7.16667 2.66667V6.33334C7.16667 6.60948 6.94281 6.83334 6.66667 6.83334C6.39052 6.83334 6.16667 6.60948 6.16667 6.33334Z" />
<path d="M2.55462 7.98047C2.96618 7.97111 3.36693 8.10054 3.69394 8.34506L3.83001 8.45703L3.84694 8.47331L5.02011 9.64649C5.21537 9.84175 5.21537 10.1583 5.02011 10.3535C4.82485 10.5487 4.50833 10.5488 4.31308 10.3535L3.15293 9.19336C2.99518 9.05168 2.7895 8.97501 2.5774 8.97982C2.36366 8.9847 2.1599 9.07181 2.00839 9.22266C1.85689 9.37363 1.76862 9.57722 1.76295 9.79102C1.7574 10.0015 1.83222 10.2061 1.97128 10.3639L4.35865 12.752C5.25997 13.6472 6.26781 14.1667 7.99993 14.1667H9.33333C10.6152 14.1667 11.8449 13.6577 12.7513 12.7513C13.6577 11.8449 14.1667 10.6152 14.1667 9.33334L14.1666 7.33334C14.1666 7.11232 14.0787 6.90042 13.9225 6.74414C13.7662 6.58788 13.5543 6.5 13.3333 6.5C13.1123 6.50002 12.9003 6.58788 12.7441 6.74414C12.5878 6.90042 12.5 7.11234 12.5 7.33334C12.5 7.60948 12.2761 7.83334 12 7.83334C11.7239 7.83334 11.5 7.60948 11.5 7.33334C11.5 6.84712 11.6932 6.38093 12.037 6.03711C12.3808 5.69331 12.8471 5.50002 13.3333 5.5C13.8195 5.5 14.2857 5.69332 14.6295 6.03711C14.9733 6.38093 15.1666 6.84711 15.1666 7.33334L15.1667 9.33334C15.1667 10.8804 14.5523 12.3644 13.4583 13.4583C12.3644 14.5523 10.8804 15.1667 9.33333 15.1667H7.99993C5.99893 15.1667 4.7395 14.5396 3.65423 13.4616L1.25319 11.0599C1.24722 11.0539 1.24126 11.0479 1.23561 11.0417C0.920271 10.6924 0.751246 10.2354 0.763603 9.76498C0.776011 9.29454 0.968667 8.84651 1.30201 8.51433C1.63538 8.18214 2.08412 7.99121 2.55462 7.98047Z" />
</g>
<defs>
<clipPath id="clip0_210_8765">
<rect width="16" height="16" fill="white"/>
</clipPath>
</defs>
</svg>
