<svg width="16" height="16" viewBox="0 0 16 16" fill="none" xmlns="http://www.w3.org/2000/svg">
<path d="M8.62524 12.5C3.84197 12.5 1.11368 9.12162 1 3.5H3.396C3.4747 7.62613 5.2411 9.37387 6.64023 9.73423V3.5H8.89632V7.05856C10.278 6.90541 11.7295 5.28378 12.2192 3.5H14.4753C14.2908 4.42512 13.923 5.30106 13.3948 6.07304C12.8667 6.84501 12.1896 7.49641 11.406 7.98649C12.2807 8.43429 13.0534 9.06811 13.6729 9.84612C14.2924 10.6241 14.7447 11.5287 15 12.5H12.5166C12.2874 11.6563 11.8216 10.9011 11.1776 10.329C10.5336 9.75683 9.74003 9.39325 8.89632 9.28378V12.5H8.62524V12.5Z" fill="#171717"/>
</svg>
