<svg width="44" height="44" viewBox="0 0 44 44" fill="none" xmlns="http://www.w3.org/2000/svg">
<rect width="44" height="44" rx="22" fill="#54595F"/>
<path d="M23.0808 29.7001C14.8126 29.7001 10.0965 23.9193 9.90002 14.3H14.0417C14.1777 21.3603 17.2311 24.3509 19.6496 24.9675V14.3H23.5494V20.3891C25.9376 20.1271 28.4468 17.3523 29.2933 14.3H33.1931C32.8741 15.883 32.2383 17.3819 31.3254 18.7028C30.4125 20.0237 29.2421 21.1383 27.8875 21.9769C29.3996 22.7432 30.7351 23.8277 31.806 25.159C32.8769 26.4902 33.6587 28.038 34.1 29.7001H29.8072C29.4111 28.2564 28.606 26.9641 27.4928 25.9852C26.3795 25.0062 25.0078 24.3841 23.5494 24.1967V29.7001H23.0808Z" fill="#F8FAFC"/>
</svg>
